<svg xmlns="http://www.w3.org/2000/svg" xmlns:svg="http://www.w3.org/2000/svg" xmlns:xlink="http://www.w3.org/1999/xlink" id="svg2766" width="200" height="80" version="1.0"><defs id="defs2768"><linearGradient id="linearGradient6558"><stop id="stop6560" offset="0" stop-color="#575757" stop-opacity="1"/><stop id="stop6562" offset="1" stop-color="#2f2f2f" stop-opacity="1"/></linearGradient><radialGradient id="radialGradient2797" cx="61.298" cy="60.911" r="44.688" fx="61.298" fy="60.911" gradientTransform="matrix(0.7160081,0,0,0.6767021,-34.98413,-3.3035294e-2)" gradientUnits="userSpaceOnUse" xlink:href="#linearGradient6558"/></defs><metadata id="metadata2771"/><g id="layer1"><path id="path2783" fill="url(#radialGradient2797)" fill-opacity="1" fill-rule="evenodd" stroke="#323232" stroke-dasharray="none" stroke-dashoffset="0" stroke-linecap="butt" stroke-linejoin="miter" stroke-miterlimit="4" stroke-opacity="1" stroke-width=".716" marker-end="none" marker-mid="none" marker-start="none" d="M 72.4375 8.6875 L 3.0625 18.71875 L 20.84375 29.0625 L 20.6875 44.09375 L 7.75 36.1875 L 8.40625 71.75 L 17.125 65.625 L 29.09375 67.5625 L 33.15625 39.90625 L 25.875 43.78125 L 26.1875 33.59375 L 46.875 31.34375 L 47.21875 42.96875 L 39.28125 40.5625 L 42.6875 67.71875 L 52.375 66.75 L 60.3125 71.75 L 62.90625 33.4375 L 53.03125 43.625 L 53.03125 28.25 L 72.4375 8.6875 z M 48.03125 22.125 L 47.0625 26.46875 L 28.46875 28.09375 L 28.46875 25.1875 L 48.03125 22.125 z M 58.375 45.0625 L 57.40625 62.875 L 51.40625 60.59375 L 45.90625 61.71875 L 43 46.21875 L 53.84375 49.9375 L 58.375 45.0625 z M 12.125 46.53125 L 22 49.75 L 26.53125 47.03125 L 25.21875 62.0625 L 16.96875 60.4375 L 12.125 63.65625 L 12.125 46.53125 z" display="inline" enable-background="accumulate" opacity="1" overflow="visible" visibility="visible" style="marker:none"/><path id="path2804" fill="#e7eef6" fill-opacity="1" fill-rule="nonzero" stroke="#e1e8f3" stroke-dasharray="none" stroke-dashoffset="0" stroke-linecap="butt" stroke-linejoin="round" stroke-miterlimit="4" stroke-opacity="1" stroke-width=".527" marker-end="none" marker-mid="none" marker-start="none" d="M 75.632462,22.265877 L 64.489624,64.880679 L 92.7889,40.941187 L 91.373937,61.872575 L 128.87048,23.519253 L 116.84328,58.36312 L 144.25821,44.450641 L 145.49631,65.632704 L 169.02007,38.183758 L 170.78877,60.493861 L 193.07447,18.631085 L 176.09491,36.554369 L 176.44864,19.633786 L 152.0405,44.701316 L 156.81601,27.655396 L 128.87048,44.325304 L 137.00652,14.494942 L 99.863721,44.325304 L 100.74807,27.028707 L 76.163076,45.829355 L 75.632462,22.265877 z" display="inline" enable-background="accumulate" opacity="1" overflow="visible" visibility="visible" style="marker:none"/><text id="text2800" x="68.402" y="54.038" fill="#1752b4" fill-opacity="1" fill-rule="nonzero" stroke="#28437f" stroke-dasharray="none" stroke-dashoffset="0" stroke-linecap="butt" stroke-linejoin="miter" stroke-miterlimit="4" stroke-opacity="1" stroke-width=".716" marker-end="none" marker-mid="none" marker-start="none" display="inline" enable-background="accumulate" font-family="Bitstream Vera Sans" font-size="12" font-style="normal" font-weight="normal" opacity="1" overflow="visible" visibility="visible" xml:space="preserve" style="marker:none"><tspan stroke-miterlimit="4" style="marker:none" id="tspan2802" x="68.402" y="54.038" fill="#1752b4" fill-opacity="1" fill-rule="nonzero" stroke="#28437f" stroke-dasharray="none" stroke-dashoffset="0" stroke-linecap="butt" stroke-linejoin="miter" stroke-opacity="1" stroke-width=".716" marker-end="none" marker-mid="none" marker-start="none" display="inline" enable-background="accumulate" font-size="36" overflow="visible" visibility="visible">Project</tspan></text></g></svg>